<svg xmlns="http://www.w3.org/2000/svg" xmlns:xlink="http://www.w3.org/1999/xlink" contentStyleType="text/css" data-diagram-type="ACTIVITY" height="2360px" preserveAspectRatio="none" style="width:2115px;height:2360px;background:#FFFFFF;" version="1.1" viewBox="0 0 2115 2360" width="2115px" zoomAndPan="magnify"><?plantuml 1.2026.6?><defs/><g><g class="title" data-source-line="1"><text fill="#000000" font-family="Arial" font-size="14" font-weight="700" lengthAdjust="spacing" textLength="464.4883" x="824.4175" y="33.1318">M2 &#8212; Smart Risk Assessment and Safety Resource Recommendation</text><text fill="#000000" font-family="Arial" font-size="14" font-weight="700" lengthAdjust="spacing" textLength="110.4824" x="1001.4204" y="49.2305">Activity Diagram</text></g><rect fill="none" height="17.2485" style="stroke:none;stroke-width:1;" width="2068.3232" x="20" y="69.876"/><rect fill="#EAF3FA" height="2166.4282" style="stroke:#EAF3FA;stroke-width:1;" width="272.6221" x="20" y="69.876"/><ellipse cx="157.311" cy="102.1245" fill="#19324D" rx="10" ry="10" style="stroke:#222222;stroke-width:1;"/><rect fill="#EAF3FA" height="37.2485" rx="12.5" ry="12.5" style="stroke:#0B6FB8;stroke-width:0.5;" width="262.6221" x="26" y="132.1245"/><text fill="#19324D" font-family="Arial" font-size="15" lengthAdjust="spacing" textLength="242.6221" x="36" y="156.1943">Submit or resubmit event application</text><rect fill="#EAF3FA" height="54.4971" rx="12.5" ry="12.5" style="stroke:#0B6FB8;stroke-width:0.5;" width="231.7651" x="41.4285" y="189.373"/><text fill="#19324D" font-family="Arial" font-size="15" lengthAdjust="spacing" textLength="211.7651" x="51.4285" y="213.4429">Create immutable EventVersion</text><text fill="#19324D" font-family="Arial" font-size="15" lengthAdjust="spacing" textLength="210.1465" x="51.4285" y="230.6914">and set event status to Pending</text><line style="stroke:#000000;stroke-width:1.5;" x1="20" x2="20" y1="69.876" y2="2236.3042"/><rect fill="#EEEAFB" height="2166.4282" style="stroke:#EEEAFB;stroke-width:1;" width="698.2056" x="292.6221" y="69.876"/><rect fill="#EAF3FA" height="54.4971" rx="12.5" ry="12.5" style="stroke:#0B6FB8;stroke-width:0.5;" width="280.127" x="378.1306" y="263.8701"/><text fill="#19324D" font-family="Arial" font-size="15" lengthAdjust="spacing" textLength="260.127" x="388.1306" y="287.9399">Receive Firestore create/update trigger</text><text fill="#19324D" font-family="Arial" font-size="15" lengthAdjust="spacing" textLength="215.9546" x="388.1306" y="305.1885">or authorised manual recompute</text><rect fill="#EAF3FA" height="37.2485" rx="12.5" ry="12.5" style="stroke:#0B6FB8;stroke-width:0.5;" width="226.7993" x="404.7944" y="338.3672"/><text fill="#19324D" font-family="Arial" font-size="15" lengthAdjust="spacing" textLength="206.7993" x="414.7944" y="362.437">Load event and current version</text><polygon fill="#FFF4D6" points="443.1648,395.6157,593.2234,395.6157,605.2234,412.8643,593.2234,430.1128,443.1648,430.1128,431.1648,412.8643,443.1648,395.6157" style="stroke:#D78B00;stroke-width:0.5;stroke-linejoin:miter;stroke-miterlimit:10;"/><text fill="#19324D" font-family="Arial" font-size="15" lengthAdjust="spacing" textLength="125.105" x="443.1648" y="409.6855">Pending event and</text><text fill="#19324D" font-family="Arial" font-size="15" lengthAdjust="spacing" textLength="150.0586" x="443.1648" y="426.9341">current version exists?</text><text fill="#000000" font-family="Arial" font-size="15" lengthAdjust="spacing" textLength="19.1748" x="411.99" y="409.6855">No</text><text fill="#000000" font-family="Arial" font-size="15" lengthAdjust="spacing" textLength="25.8472" x="605.2234" y="409.6855">Yes</text><rect fill="#EAF3FA" height="54.4971" rx="12.5" ry="12.5" style="stroke:#0B6FB8;stroke-width:0.5;" width="184.2236" x="310.6221" y="440.1128"/><text fill="#19324D" font-family="Arial" font-size="15" lengthAdjust="spacing" textLength="132.583" x="320.6221" y="464.1826">Skip ineligible event</text><text fill="#19324D" font-family="Arial" font-size="15" lengthAdjust="spacing" textLength="164.2236" x="320.6221" y="481.4312">or report missing version</text><ellipse cx="402.7339" cy="525.6099" fill="none" rx="11" ry="11" style="stroke:#222222;stroke-width:1;"/><ellipse cx="402.7339" cy="525.6099" fill="#222222" rx="6" ry="6" style="stroke:#222222;stroke-width:1;"/><rect fill="#EAF3FA" height="54.4971" rx="12.5" ry="12.5" style="stroke:#0B6FB8;stroke-width:0.5;" width="237.6172" x="514.8457" y="440.1128"/><text fill="#19324D" font-family="Arial" font-size="15" lengthAdjust="spacing" textLength="217.6172" x="524.8457" y="464.1826">Build processing hash from input</text><text fill="#19324D" font-family="Arial" font-size="15" lengthAdjust="spacing" textLength="185.0903" x="524.8457" y="481.4312">and active schema versions</text><rect fill="#E5B323" height="6" rx="2.5" ry="2.5" style="stroke:#E5B323;stroke-width:1;" width="688.2056" x="298.6221" y="827.2297"/><rect fill="#EAF3FA" height="54.4971" rx="12.5" ry="12.5" style="stroke:#0B6FB8;stroke-width:0.5;" width="279.2993" x="378.5444" y="953.7268"/><text fill="#19324D" font-family="Arial" font-size="15" lengthAdjust="spacing" textLength="252.6416" x="388.5444" y="977.7966">Assemble versioned context snapshot</text><text fill="#19324D" font-family="Arial" font-size="15" lengthAdjust="spacing" textLength="259.2993" x="388.5444" y="995.0452">with source, timestamp and confidence</text><rect fill="#EAF3FA" height="37.2485" rx="12.5" ry="12.5" style="stroke:#0B6FB8;stroke-width:0.5;" width="310.1489" x="363.1196" y="1028.2239"/><text fill="#19324D" font-family="Arial" font-size="15" lengthAdjust="spacing" textLength="290.1489" x="373.1196" y="1052.2937">Apply active eight-domain category schema</text><rect fill="#EAF3FA" height="54.4971" rx="12.5" ry="12.5" style="stroke:#0B6FB8;stroke-width:0.5;" width="279.6875" x="378.3503" y="1085.4724"/><text fill="#19324D" font-family="Arial" font-size="15" lengthAdjust="spacing" textLength="259.6875" x="388.3503" y="1109.5422">Calculate HIRARC likelihood &#215; severity</text><text fill="#19324D" font-family="Arial" font-size="15" lengthAdjust="spacing" textLength="180.1025" x="388.3503" y="1126.7908">for every applicable hazard</text><rect fill="#EAF3FA" height="54.4971" rx="12.5" ry="12.5" style="stroke:#0B6FB8;stroke-width:0.5;" width="198.418" x="418.9851" y="1159.9695"/><text fill="#19324D" font-family="Arial" font-size="15" lengthAdjust="spacing" textLength="178.418" x="428.9851" y="1184.0393">Apply mitigation credit only</text><text fill="#19324D" font-family="Arial" font-size="15" lengthAdjust="spacing" textLength="126.7163" x="428.9851" y="1201.2878">for verified controls</text><path d="M681.9966,1230.8423 L681.9966,1249.0908 L661.9966,1253.0908 L681.9966,1257.0908 L681.9966,1275.3394 A0,0 0 0 0 681.9966,1275.3394 L952.6938,1275.3394 A0,0 0 0 0 952.6938,1275.3394 L952.6938,1240.8423 L942.6938,1230.8423 L681.9966,1230.8423 A0,0 0 0 0 681.9966,1230.8423" fill="#FFF8E8" style="stroke:#F2A93B;stroke-width:0.5;"/><path d="M942.6938,1230.8423 L942.6938,1240.8423 L952.6938,1240.8423 L942.6938,1230.8423" fill="#FFF8E8" style="stroke:#F2A93B;stroke-width:0.5;"/><text fill="#5B4211" font-family="Arial" font-size="15" lengthAdjust="spacing" textLength="249.6973" x="687.9966" y="1249.9121">Official risk = highest residual hazard.</text><text fill="#5B4211" font-family="Arial" font-size="15" lengthAdjust="spacing" textLength="220.0562" x="687.9966" y="1267.1606">Deterministic result is immutable.</text><rect fill="#EAF3FA" height="37.2485" rx="12.5" ry="12.5" style="stroke:#0B6FB8;stroke-width:0.5;" width="287.605" x="374.3916" y="1234.4666"/><text fill="#19324D" font-family="Arial" font-size="15" lengthAdjust="spacing" textLength="267.605" x="384.3916" y="1258.5364">Calculate residual matrix and official risk</text><rect fill="#EAF3FA" height="54.4971" rx="12.5" ry="12.5" style="stroke:#0B6FB8;stroke-width:0.5;" width="259.3335" x="388.5273" y="1295.3394"/><text fill="#19324D" font-family="Arial" font-size="15" lengthAdjust="spacing" textLength="215.9473" x="398.5273" y="1319.4092">Calculate readiness, compliance</text><text fill="#19324D" font-family="Arial" font-size="15" lengthAdjust="spacing" textLength="239.3335" x="398.5273" y="1336.6577">and evidence confidence separately</text><rect fill="#EAF3FA" height="54.4971" rx="12.5" ry="12.5" style="stroke:#0B6FB8;stroke-width:0.5;" width="297.6318" x="369.3782" y="1593.3276"/><text fill="#19324D" font-family="Arial" font-size="15" lengthAdjust="spacing" textLength="277.6318" x="379.3782" y="1617.3975">Calculate deterministic resource baseline,</text><text fill="#19324D" font-family="Arial" font-size="15" lengthAdjust="spacing" textLength="261.8701" x="379.3782" y="1634.646">planning ranges and guideline rationale</text><rect fill="#EAF3FA" height="54.4971" rx="12.5" ry="12.5" style="stroke:#0B6FB8;stroke-width:0.5;" width="237.6025" x="399.3928" y="1667.8247"/><text fill="#19324D" font-family="Arial" font-size="15" lengthAdjust="spacing" textLength="214.27" x="409.3928" y="1691.8945">Consolidate official assessment,</text><text fill="#19324D" font-family="Arial" font-size="15" lengthAdjust="spacing" textLength="217.6025" x="409.3928" y="1709.1431">AI advisory status and resources</text><rect fill="#EAF3FA" height="37.2485" rx="12.5" ry="12.5" style="stroke:#0B6FB8;stroke-width:0.5;" width="165.8984" x="435.2449" y="2065.3101"/><text fill="#19324D" font-family="Arial" font-size="15" lengthAdjust="spacing" textLength="145.8984" x="445.2449" y="2089.3799">Mark M2 output ready</text><path d="M662.8291,2127.5586 L662.8291,2154.4314 L642.8291,2158.4314 L662.8291,2162.4314 L662.8291,2189.3042 A0,0 0 0 0 662.8291,2189.3042 L974.8276,2189.3042 A0,0 0 0 0 974.8276,2189.3042 L974.8276,2137.5586 L964.8276,2127.5586 L662.8291,2127.5586 A0,0 0 0 0 662.8291,2127.5586" fill="#FFF8E8" style="stroke:#F2A93B;stroke-width:0.5;"/><path d="M964.8276,2127.5586 L964.8276,2137.5586 L974.8276,2137.5586 L964.8276,2127.5586" fill="#FFF8E8" style="stroke:#F2A93B;stroke-width:0.5;"/><text fill="#5B4211" font-family="Arial" font-size="15" lengthAdjust="spacing" textLength="290.9985" x="668.8291" y="2146.6284">Handoff only: M3 owns the human decision.</text><text fill="#5B4211" font-family="Arial" font-size="15" lengthAdjust="spacing" textLength="278.4448" x="668.8291" y="2163.877">M3 may override resources with rationale,</text><text fill="#5B4211" font-family="Arial" font-size="15" lengthAdjust="spacing" textLength="245.127" x="668.8291" y="2181.1255">but cannot alter the official M2 result.</text><rect fill="#EAF3FA" height="71.7456" rx="12.5" ry="12.5" style="stroke:#0B6FB8;stroke-width:0.5;" width="249.27" x="393.5591" y="2122.5586"/><text fill="#19324D" font-family="Arial" font-size="15" lengthAdjust="spacing" textLength="229.27" x="403.5591" y="2146.6284">Publish organiser-safe view to M1,</text><text fill="#19324D" font-family="Arial" font-size="15" lengthAdjust="spacing" textLength="145.8984" x="403.5591" y="2163.877">full review data to M3,</text><text fill="#19324D" font-family="Arial" font-size="15" lengthAdjust="spacing" textLength="172.5952" x="403.5591" y="2181.1255">and read-only fields to M5</text><ellipse cx="518.1941" cy="2225.3042" fill="none" rx="11" ry="11" style="stroke:#222222;stroke-width:1;"/><ellipse cx="518.1941" cy="2225.3042" fill="#222222" rx="6" ry="6" style="stroke:#222222;stroke-width:1;"/><line style="stroke:#000000;stroke-width:1.5;" x1="292.6221" x2="292.6221" y1="69.876" y2="2236.3042"/><rect fill="#E8F6F1" height="2166.4282" style="stroke:#E8F6F1;stroke-width:1;" width="1096.4119" x="990.8276" y="69.876"/><rect fill="#EAF3FA" height="54.4971" rx="12.5" ry="12.5" style="stroke:#0B6FB8;stroke-width:0.5;" width="312.2217" x="1354.4304" y="556.6099"/><text fill="#19324D" font-family="Arial" font-size="15" lengthAdjust="spacing" textLength="248.4302" x="1364.4304" y="580.6797">Transactionally claim assessment job</text><text fill="#19324D" font-family="Arial" font-size="15" lengthAdjust="spacing" textLength="292.2217" x="1364.4304" y="597.9282">status = processing, with lease and claim ID</text><rect fill="#EAF3FA" height="54.4971" rx="12.5" ry="12.5" style="stroke:#0B6FB8;stroke-width:0.5;" width="215.9302" x="1402.5762" y="681.7312"/><text fill="#19324D" font-family="Arial" font-size="15" lengthAdjust="spacing" textLength="100.8911" x="1412.5762" y="705.801">Return skipped</text><text fill="#19324D" font-family="Arial" font-size="15" lengthAdjust="spacing" textLength="195.9302" x="1412.5762" y="723.0496">already ready, active, or stale</text><ellipse cx="1510.5413" cy="774.2297" fill="none" rx="11" ry="11" style="stroke:#222222;stroke-width:1;"/><ellipse cx="1510.5413" cy="774.2297" fill="#222222" rx="6" ry="6" style="stroke:#222222;stroke-width:1;"/><polygon fill="#FFF4D6" points="1456.3494,631.1069,1564.7332,631.1069,1576.7332,643.1069,1564.7332,655.1069,1456.3494,655.1069,1444.3494,643.1069,1456.3494,631.1069" style="stroke:#D78B00;stroke-width:0.5;stroke-linejoin:miter;stroke-miterlimit:10;"/><text fill="#000000" font-family="Arial" font-size="15" lengthAdjust="spacing" textLength="19.1748" x="1514.5413" y="669.1768">No</text><text fill="#19324D" font-family="Arial" font-size="15" lengthAdjust="spacing" textLength="108.3838" x="1456.3494" y="648.5525">Claim acquired?</text><text fill="#000000" font-family="Arial" font-size="15" lengthAdjust="spacing" textLength="25.8472" x="1576.7332" y="639.9282">Yes</text><rect fill="#EAF3FA" height="54.4971" rx="12.5" ry="12.5" style="stroke:#0B6FB8;stroke-width:0.5;" width="212.5903" x="1008.8276" y="853.2297"/><text fill="#19324D" font-family="Arial" font-size="15" lengthAdjust="spacing" textLength="192.5903" x="1018.8276" y="877.2996">Fetch OpenWeather forecast</text><text fill="#19324D" font-family="Arial" font-size="15" lengthAdjust="spacing" textLength="162.5684" x="1018.8276" y="894.5481">or explicit fallback status</text><rect fill="#EAF3FA" height="54.4971" rx="12.5" ry="12.5" style="stroke:#0B6FB8;stroke-width:0.5;" width="242.6123" x="1231.418" y="853.2297"/><text fill="#19324D" font-family="Arial" font-size="15" lengthAdjust="spacing" textLength="222.6123" x="1241.418" y="877.2996">Resolve Malaysia date, weekday,</text><text fill="#19324D" font-family="Arial" font-size="15" lengthAdjust="spacing" textLength="184.2993" x="1241.418" y="894.5481">weekend and public holiday</text><rect fill="#EAF3FA" height="54.4971" rx="12.5" ry="12.5" style="stroke:#0B6FB8;stroke-width:0.5;" width="225.9351" x="1502.0303" y="853.2297"/><text fill="#19324D" font-family="Arial" font-size="15" lengthAdjust="spacing" textLength="205.9351" x="1512.0303" y="877.2996">Match venue, verified capacity,</text><text fill="#19324D" font-family="Arial" font-size="15" lengthAdjust="spacing" textLength="153.4131" x="1512.0303" y="894.5481">fire and access context</text><rect fill="#EAF3FA" height="54.4971" rx="12.5" ry="12.5" style="stroke:#0B6FB8;stroke-width:0.5;" width="274.2896" x="1755.9653" y="853.2297"/><text fill="#19324D" font-family="Arial" font-size="15" lengthAdjust="spacing" textLength="254.2896" x="1765.9653" y="877.2996">Retrieve comparable verified incidents</text><text fill="#19324D" font-family="Arial" font-size="15" lengthAdjust="spacing" textLength="124.2407" x="1765.9653" y="894.5481">by stable venue ID</text><rect fill="#E5B323" height="6" rx="2.5" ry="2.5" style="stroke:#E5B323;stroke-width:1;" width="1047.4272" x="996.8276" y="927.7268"/><rect fill="#EAF3FA" height="54.4971" rx="12.5" ry="12.5" style="stroke:#0B6FB8;stroke-width:0.5;" width="286.7773" x="1367.1526" y="1369.8364"/><text fill="#19324D" font-family="Arial" font-size="15" lengthAdjust="spacing" textLength="239.3188" x="1377.1526" y="1393.9063">Send allowlisted non-PII event data,</text><text fill="#19324D" font-family="Arial" font-size="15" lengthAdjust="spacing" textLength="266.7773" x="1377.1526" y="1411.1548">context and official result to MiniMax M3</text><polygon fill="#FFF4D6" points="1437.5811,1444.3335,1583.5015,1444.3335,1595.5015,1461.582,1583.5015,1478.8306,1437.5811,1478.8306,1425.5811,1461.582,1437.5811,1444.3335" style="stroke:#D78B00;stroke-width:0.5;stroke-linejoin:miter;stroke-miterlimit:10;"/><text fill="#19324D" font-family="Arial" font-size="15" lengthAdjust="spacing" textLength="145.9204" x="1437.5811" y="1458.4033">Response is available</text><text fill="#19324D" font-family="Arial" font-size="15" lengthAdjust="spacing" textLength="125.9033" x="1437.5811" y="1475.6519">and schema-valid?</text><text fill="#000000" font-family="Arial" font-size="15" lengthAdjust="spacing" textLength="25.8472" x="1399.7339" y="1458.4033">Yes</text><text fill="#000000" font-family="Arial" font-size="15" lengthAdjust="spacing" textLength="19.1748" x="1595.5015" y="1458.4033">No</text><rect fill="#EAF3FA" height="54.4971" rx="12.5" ry="12.5" style="stroke:#0B6FB8;stroke-width:0.5;" width="273.4766" x="1231.6497" y="1488.8306"/><text fill="#19324D" font-family="Arial" font-size="15" lengthAdjust="spacing" textLength="251.8066" x="1241.6497" y="1512.9004">Return advisory category explanation,</text><text fill="#19324D" font-family="Arial" font-size="15" lengthAdjust="spacing" textLength="253.4766" x="1241.6497" y="1530.1489">concerns and resource considerations</text><path d="M1800.2629,1488.8306 L1800.2629,1507.0791 L1780.2629,1511.0791 L1800.2629,1515.0791 L1800.2629,1533.3276 A0,0 0 0 0 1800.2629,1533.3276 L2082.2395,1533.3276 A0,0 0 0 0 2082.2395,1533.3276 L2082.2395,1498.8306 L2072.2395,1488.8306 L1800.2629,1488.8306 A0,0 0 0 0 1800.2629,1488.8306" fill="#FFF8E8" style="stroke:#F2A93B;stroke-width:0.5;"/><path d="M2072.2395,1488.8306 L2072.2395,1498.8306 L2082.2395,1498.8306 L2072.2395,1488.8306" fill="#FFF8E8" style="stroke:#F2A93B;stroke-width:0.5;"/><text fill="#5B4211" font-family="Arial" font-size="15" lengthAdjust="spacing" textLength="260.9766" x="1806.2629" y="1507.9004">AI failure cannot change the official risk</text><text fill="#5B4211" font-family="Arial" font-size="15" lengthAdjust="spacing" textLength="222.5757" x="1806.2629" y="1525.1489">or deterministic resource formula.</text><rect fill="#EAF3FA" height="37.2485" rx="12.5" ry="12.5" style="stroke:#0B6FB8;stroke-width:0.5;" width="255.1367" x="1525.1262" y="1492.4548"/><text fill="#19324D" font-family="Arial" font-size="15" lengthAdjust="spacing" textLength="235.1367" x="1535.1262" y="1516.5247">Return unavailable / invalid fallback</text><polygon fill="#FFF4D6" points="1510.5413,1549.3276,1522.5413,1561.3276,1510.5413,1573.3276,1498.5413,1561.3276,1510.5413,1549.3276" style="stroke:#D78B00;stroke-width:0.5;stroke-linejoin:miter;stroke-miterlimit:10;"/><rect fill="#EAF3FA" height="54.4971" rx="12.5" ry="12.5" style="stroke:#0B6FB8;stroke-width:0.5;" width="245.1025" x="1387.99" y="1742.3218"/><text fill="#19324D" font-family="Arial" font-size="15" lengthAdjust="spacing" textLength="216.7896" x="1397.99" y="1766.3916">Begin final transaction and verify</text><text fill="#19324D" font-family="Arial" font-size="15" lengthAdjust="spacing" textLength="225.1025" x="1397.99" y="1783.6401">claim ID, event status and version</text><polygon fill="#FFF4D6" points="1450.5156,1816.8188,1570.5669,1816.8188,1582.5669,1834.0674,1570.5669,1851.3159,1450.5156,1851.3159,1438.5156,1834.0674,1450.5156,1816.8188" style="stroke:#D78B00;stroke-width:0.5;stroke-linejoin:miter;stroke-miterlimit:10;"/><text fill="#19324D" font-family="Arial" font-size="15" lengthAdjust="spacing" textLength="120.0513" x="1450.5156" y="1830.8887">Claim and version</text><text fill="#19324D" font-family="Arial" font-size="15" lengthAdjust="spacing" textLength="80.8594" x="1450.5156" y="1848.1372">still current?</text><text fill="#000000" font-family="Arial" font-size="15" lengthAdjust="spacing" textLength="19.1748" x="1419.3408" y="1830.8887">No</text><text fill="#000000" font-family="Arial" font-size="15" lengthAdjust="spacing" textLength="25.8472" x="1582.5669" y="1830.8887">Yes</text><rect fill="#EAF3FA" height="37.2485" rx="12.5" ry="12.5" style="stroke:#0B6FB8;stroke-width:0.5;" width="190.896" x="1284.2156" y="1861.3159"/><text fill="#19324D" font-family="Arial" font-size="15" lengthAdjust="spacing" textLength="170.896" x="1294.2156" y="1885.3857">Discard stale result safely</text><ellipse cx="1379.6636" cy="1944.5645" fill="none" rx="11" ry="11" style="stroke:#222222;stroke-width:1;"/><ellipse cx="1379.6636" cy="1944.5645" fill="#222222" rx="6" ry="6" style="stroke:#222222;stroke-width:1;"/><rect fill="#EAF3FA" height="54.4971" rx="12.5" ry="12.5" style="stroke:#0B6FB8;stroke-width:0.5;" width="223.4448" x="1529.6965" y="1861.3159"/><text fill="#19324D" font-family="Arial" font-size="15" lengthAdjust="spacing" textLength="189.2578" x="1539.6965" y="1885.3857">Store versioned assessment</text><text fill="#19324D" font-family="Arial" font-size="15" lengthAdjust="spacing" textLength="203.4448" x="1539.6965" y="1902.6343">and resource recommendation</text><rect fill="#EAF3FA" height="37.2485" rx="12.5" ry="12.5" style="stroke:#0B6FB8;stroke-width:0.5;" width="292.6147" x="1495.1116" y="1950.813"/><text fill="#19324D" font-family="Arial" font-size="15" lengthAdjust="spacing" textLength="272.6147" x="1505.1116" y="1974.8828">Update current assessment/resource IDs</text><rect fill="#EAF3FA" height="37.2485" rx="12.5" ry="12.5" style="stroke:#0B6FB8;stroke-width:0.5;" width="260.0952" x="1511.3713" y="2008.0615"/><text fill="#19324D" font-family="Arial" font-size="15" lengthAdjust="spacing" textLength="240.0952" x="1521.3713" y="2032.1313">Write risk and resource audit entries</text><line style="stroke:#000000;stroke-width:1.5;" x1="990.8276" x2="990.8276" y1="69.876" y2="2236.3042"/><line style="stroke:#000000;stroke-width:1.5;" x1="2087.2395" x2="2087.2395" y1="69.876" y2="2236.3042"/><line style="stroke:#4B5563;stroke-width:1.4;" x1="157.311" x2="157.311" y1="112.1245" y2="132.1245"/><polygon fill="#4B5563" points="153.311,122.1245,157.311,132.1245,161.311,122.1245,157.311,126.1245" style="stroke:#4B5563;stroke-width:1;stroke-linejoin:miter;stroke-miterlimit:10;"/><line style="stroke:#4B5563;stroke-width:1.4;" x1="157.311" x2="157.311" y1="169.373" y2="189.373"/><polygon fill="#4B5563" points="153.311,179.373,157.311,189.373,161.311,179.373,157.311,183.373" style="stroke:#4B5563;stroke-width:1;stroke-linejoin:miter;stroke-miterlimit:10;"/><line style="stroke:#4B5563;stroke-width:1.4;" x1="518.1941" x2="518.1941" y1="318.3672" y2="338.3672"/><polygon fill="#4B5563" points="514.1941,328.3672,518.1941,338.3672,522.1941,328.3672,518.1941,332.3672" style="stroke:#4B5563;stroke-width:1;stroke-linejoin:miter;stroke-miterlimit:10;"/><line style="stroke:#4B5563;stroke-width:1.4;" x1="402.7339" x2="402.7339" y1="494.6099" y2="514.6099"/><polygon fill="#4B5563" points="398.7339,504.6099,402.7339,514.6099,406.7339,504.6099,402.7339,508.6099" style="stroke:#4B5563;stroke-width:1;stroke-linejoin:miter;stroke-miterlimit:10;"/><line style="stroke:#4B5563;stroke-width:1.4;" x1="431.1648" x2="402.7339" y1="412.8643" y2="412.8643"/><line style="stroke:#4B5563;stroke-width:1.4;" x1="402.7339" x2="402.7339" y1="412.8643" y2="440.1128"/><polygon fill="#4B5563" points="398.7339,430.1128,402.7339,440.1128,406.7339,430.1128,402.7339,434.1128" style="stroke:#4B5563;stroke-width:1;stroke-linejoin:miter;stroke-miterlimit:10;"/><line style="stroke:#4B5563;stroke-width:1.4;" x1="605.2234" x2="633.6543" y1="412.8643" y2="412.8643"/><line style="stroke:#4B5563;stroke-width:1.4;" x1="633.6543" x2="633.6543" y1="412.8643" y2="440.1128"/><polygon fill="#4B5563" points="629.6543,430.1128,633.6543,440.1128,637.6543,430.1128,633.6543,434.1128" style="stroke:#4B5563;stroke-width:1;stroke-linejoin:miter;stroke-miterlimit:10;"/><line style="stroke:#4B5563;stroke-width:1.4;" x1="633.6543" x2="633.6543" y1="494.6099" y2="541.6099"/><line style="stroke:#4B5563;stroke-width:1.4;" x1="633.6543" x2="1510.5413" y1="541.6099" y2="541.6099"/><line style="stroke:#4B5563;stroke-width:1.4;" x1="1510.5413" x2="1510.5413" y1="541.6099" y2="556.6099"/><polygon fill="#4B5563" points="1506.5413,546.6099,1510.5413,556.6099,1514.5413,546.6099,1510.5413,550.6099" style="stroke:#4B5563;stroke-width:1;stroke-linejoin:miter;stroke-miterlimit:10;"/><line style="stroke:#4B5563;stroke-width:1.4;" x1="518.1941" x2="518.1941" y1="375.6157" y2="395.6157"/><polygon fill="#4B5563" points="514.1941,385.6157,518.1941,395.6157,522.1941,385.6157,518.1941,389.6157" style="stroke:#4B5563;stroke-width:1;stroke-linejoin:miter;stroke-miterlimit:10;"/><line style="stroke:#4B5563;stroke-width:1.4;" x1="518.1941" x2="518.1941" y1="1008.2239" y2="1028.2239"/><polygon fill="#4B5563" points="514.1941,1018.2239,518.1941,1028.2239,522.1941,1018.2239,518.1941,1022.2239" style="stroke:#4B5563;stroke-width:1;stroke-linejoin:miter;stroke-miterlimit:10;"/><line style="stroke:#4B5563;stroke-width:1.4;" x1="518.1941" x2="518.1941" y1="1065.4724" y2="1085.4724"/><polygon fill="#4B5563" points="514.1941,1075.4724,518.1941,1085.4724,522.1941,1075.4724,518.1941,1079.4724" style="stroke:#4B5563;stroke-width:1;stroke-linejoin:miter;stroke-miterlimit:10;"/><line style="stroke:#4B5563;stroke-width:1.4;" x1="518.1941" x2="518.1941" y1="1139.9695" y2="1159.9695"/><polygon fill="#4B5563" points="514.1941,1149.9695,518.1941,1159.9695,522.1941,1149.9695,518.1941,1153.9695" style="stroke:#4B5563;stroke-width:1;stroke-linejoin:miter;stroke-miterlimit:10;"/><line style="stroke:#4B5563;stroke-width:1.4;" x1="518.1941" x2="518.1941" y1="1214.4666" y2="1234.4666"/><polygon fill="#4B5563" points="514.1941,1224.4666,518.1941,1234.4666,522.1941,1224.4666,518.1941,1228.4666" style="stroke:#4B5563;stroke-width:1;stroke-linejoin:miter;stroke-miterlimit:10;"/><line style="stroke:#4B5563;stroke-width:1.4;" x1="518.1941" x2="518.1941" y1="1271.7151" y2="1295.3394"/><polygon fill="#4B5563" points="514.1941,1285.3394,518.1941,1295.3394,522.1941,1285.3394,518.1941,1289.3394" style="stroke:#4B5563;stroke-width:1;stroke-linejoin:miter;stroke-miterlimit:10;"/><line style="stroke:#4B5563;stroke-width:1.4;" x1="518.1941" x2="518.1941" y1="1647.8247" y2="1667.8247"/><polygon fill="#4B5563" points="514.1941,1657.8247,518.1941,1667.8247,522.1941,1657.8247,518.1941,1661.8247" style="stroke:#4B5563;stroke-width:1;stroke-linejoin:miter;stroke-miterlimit:10;"/><line style="stroke:#4B5563;stroke-width:1.4;" x1="518.1941" x2="518.1941" y1="2102.5586" y2="2122.5586"/><polygon fill="#4B5563" points="514.1941,2112.5586,518.1941,2122.5586,522.1941,2112.5586,518.1941,2116.5586" style="stroke:#4B5563;stroke-width:1;stroke-linejoin:miter;stroke-miterlimit:10;"/><line style="stroke:#4B5563;stroke-width:1.4;" x1="518.1941" x2="518.1941" y1="2194.3042" y2="2214.3042"/><polygon fill="#4B5563" points="514.1941,2204.3042,518.1941,2214.3042,522.1941,2204.3042,518.1941,2208.3042" style="stroke:#4B5563;stroke-width:1;stroke-linejoin:miter;stroke-miterlimit:10;"/><line style="stroke:#4B5563;stroke-width:1.4;" x1="1510.5413" x2="1510.5413" y1="736.2283" y2="763.2297"/><polygon fill="#4B5563" points="1506.5413,753.2297,1510.5413,763.2297,1514.5413,753.2297,1510.5413,757.2297" style="stroke:#4B5563;stroke-width:1;stroke-linejoin:miter;stroke-miterlimit:10;"/><line style="stroke:#4B5563;stroke-width:1.4;" x1="1510.5413" x2="1510.5413" y1="655.1069" y2="681.7312"/><polygon fill="#4B5563" points="1506.5413,671.7312,1510.5413,681.7312,1514.5413,671.7312,1510.5413,675.7312" style="stroke:#4B5563;stroke-width:1;stroke-linejoin:miter;stroke-miterlimit:10;"/><line style="stroke:#4B5563;stroke-width:1.4;" x1="1576.7332" x2="1628.5063" y1="643.1069" y2="643.1069"/><polygon fill="#4B5563" points="1624.5063,733.2297,1628.5063,743.2297,1632.5063,733.2297,1628.5063,737.2297" style="stroke:#4B5563;stroke-width:1.4;stroke-linejoin:miter;stroke-miterlimit:10;"/><line style="stroke:#4B5563;stroke-width:1.4;" x1="1628.5063" x2="1628.5063" y1="643.1069" y2="812.2297"/><line style="stroke:#4B5563;stroke-width:1.4;" x1="1628.5063" x2="518.1941" y1="812.2297" y2="812.2297"/><line style="stroke:#4B5563;stroke-width:1.4;" x1="518.1941" x2="518.1941" y1="812.2297" y2="827.2297"/><polygon fill="#4B5563" points="514.1941,817.2297,518.1941,827.2297,522.1941,817.2297,518.1941,821.2297" style="stroke:#4B5563;stroke-width:1;stroke-linejoin:miter;stroke-miterlimit:10;"/><line style="stroke:#4B5563;stroke-width:1.4;" x1="1510.5413" x2="1510.5413" y1="611.1069" y2="631.1069"/><polygon fill="#4B5563" points="1506.5413,621.1069,1510.5413,631.1069,1514.5413,621.1069,1510.5413,625.1069" style="stroke:#4B5563;stroke-width:1;stroke-linejoin:miter;stroke-miterlimit:10;"/><line style="stroke:#4B5563;stroke-width:1.4;" x1="1115.1228" x2="1115.1228" y1="907.7268" y2="927.7268"/><polygon fill="#4B5563" points="1111.1228,917.7268,1115.1228,927.7268,1119.1228,917.7268,1115.1228,921.7268" style="stroke:#4B5563;stroke-width:1;stroke-linejoin:miter;stroke-miterlimit:10;"/><line style="stroke:#4B5563;stroke-width:1.4;" x1="1352.7241" x2="1352.7241" y1="907.7268" y2="927.7268"/><polygon fill="#4B5563" points="1348.7241,917.7268,1352.7241,927.7268,1356.7241,917.7268,1352.7241,921.7268" style="stroke:#4B5563;stroke-width:1;stroke-linejoin:miter;stroke-miterlimit:10;"/><line style="stroke:#4B5563;stroke-width:1.4;" x1="1614.9978" x2="1614.9978" y1="907.7268" y2="927.7268"/><polygon fill="#4B5563" points="1610.9978,917.7268,1614.9978,927.7268,1618.9978,917.7268,1614.9978,921.7268" style="stroke:#4B5563;stroke-width:1;stroke-linejoin:miter;stroke-miterlimit:10;"/><line style="stroke:#4B5563;stroke-width:1.4;" x1="1893.1101" x2="1893.1101" y1="907.7268" y2="927.7268"/><polygon fill="#4B5563" points="1889.1101,917.7268,1893.1101,927.7268,1897.1101,917.7268,1893.1101,921.7268" style="stroke:#4B5563;stroke-width:1;stroke-linejoin:miter;stroke-miterlimit:10;"/><line style="stroke:#4B5563;stroke-width:1.4;" x1="1425.5811" x2="1368.3879" y1="1461.582" y2="1461.582"/><line style="stroke:#4B5563;stroke-width:1.4;" x1="1368.3879" x2="1368.3879" y1="1461.582" y2="1488.8306"/><polygon fill="#4B5563" points="1364.3879,1478.8306,1368.3879,1488.8306,1372.3879,1478.8306,1368.3879,1482.8306" style="stroke:#4B5563;stroke-width:1;stroke-linejoin:miter;stroke-miterlimit:10;"/><line style="stroke:#4B5563;stroke-width:1.4;" x1="1595.5015" x2="1652.6946" y1="1461.582" y2="1461.582"/><line style="stroke:#4B5563;stroke-width:1.4;" x1="1652.6946" x2="1652.6946" y1="1461.582" y2="1492.4548"/><polygon fill="#4B5563" points="1648.6946,1482.4548,1652.6946,1492.4548,1656.6946,1482.4548,1652.6946,1486.4548" style="stroke:#4B5563;stroke-width:1;stroke-linejoin:miter;stroke-miterlimit:10;"/><line style="stroke:#4B5563;stroke-width:1.4;" x1="1368.3879" x2="1368.3879" y1="1543.3276" y2="1561.3276"/><line style="stroke:#4B5563;stroke-width:1.4;" x1="1368.3879" x2="1498.5413" y1="1561.3276" y2="1561.3276"/><polygon fill="#4B5563" points="1488.5413,1557.3276,1498.5413,1561.3276,1488.5413,1565.3276,1492.5413,1561.3276" style="stroke:#4B5563;stroke-width:1;stroke-linejoin:miter;stroke-miterlimit:10;"/><line style="stroke:#4B5563;stroke-width:1.4;" x1="1652.6946" x2="1652.6946" y1="1529.7034" y2="1561.3276"/><line style="stroke:#4B5563;stroke-width:1.4;" x1="1652.6946" x2="1522.5413" y1="1561.3276" y2="1561.3276"/><polygon fill="#4B5563" points="1532.5413,1557.3276,1522.5413,1561.3276,1532.5413,1565.3276,1528.5413,1561.3276" style="stroke:#4B5563;stroke-width:1;stroke-linejoin:miter;stroke-miterlimit:10;"/><line style="stroke:#4B5563;stroke-width:1.4;" x1="1510.5413" x2="1510.5413" y1="1424.3335" y2="1444.3335"/><polygon fill="#4B5563" points="1506.5413,1434.3335,1510.5413,1444.3335,1514.5413,1434.3335,1510.5413,1438.3335" style="stroke:#4B5563;stroke-width:1;stroke-linejoin:miter;stroke-miterlimit:10;"/><line style="stroke:#4B5563;stroke-width:1.4;" x1="1379.6636" x2="1379.6636" y1="1898.5645" y2="1933.5645"/><polygon fill="#4B5563" points="1375.6636,1923.5645,1379.6636,1933.5645,1383.6636,1923.5645,1379.6636,1927.5645" style="stroke:#4B5563;stroke-width:1;stroke-linejoin:miter;stroke-miterlimit:10;"/><line style="stroke:#4B5563;stroke-width:1.4;" x1="1641.4189" x2="1641.4189" y1="1915.813" y2="1950.813"/><polygon fill="#4B5563" points="1637.4189,1940.813,1641.4189,1950.813,1645.4189,1940.813,1641.4189,1944.813" style="stroke:#4B5563;stroke-width:1;stroke-linejoin:miter;stroke-miterlimit:10;"/><line style="stroke:#4B5563;stroke-width:1.4;" x1="1641.4189" x2="1641.4189" y1="1988.0615" y2="2008.0615"/><polygon fill="#4B5563" points="1637.4189,1998.0615,1641.4189,2008.0615,1645.4189,1998.0615,1641.4189,2002.0615" style="stroke:#4B5563;stroke-width:1;stroke-linejoin:miter;stroke-miterlimit:10;"/><line style="stroke:#4B5563;stroke-width:1.4;" x1="1438.5156" x2="1379.6636" y1="1834.0674" y2="1834.0674"/><line style="stroke:#4B5563;stroke-width:1.4;" x1="1379.6636" x2="1379.6636" y1="1834.0674" y2="1861.3159"/><polygon fill="#4B5563" points="1375.6636,1851.3159,1379.6636,1861.3159,1383.6636,1851.3159,1379.6636,1855.3159" style="stroke:#4B5563;stroke-width:1;stroke-linejoin:miter;stroke-miterlimit:10;"/><line style="stroke:#4B5563;stroke-width:1.4;" x1="1582.5669" x2="1641.4189" y1="1834.0674" y2="1834.0674"/><line style="stroke:#4B5563;stroke-width:1.4;" x1="1641.4189" x2="1641.4189" y1="1834.0674" y2="1861.3159"/><polygon fill="#4B5563" points="1637.4189,1851.3159,1641.4189,1861.3159,1645.4189,1851.3159,1641.4189,1855.3159" style="stroke:#4B5563;stroke-width:1;stroke-linejoin:miter;stroke-miterlimit:10;"/><line style="stroke:#4B5563;stroke-width:1.4;" x1="1641.4189" x2="1641.4189" y1="2045.3101" y2="2050.3101"/><line style="stroke:#4B5563;stroke-width:1.4;" x1="1641.4189" x2="518.1941" y1="2050.3101" y2="2050.3101"/><line style="stroke:#4B5563;stroke-width:1.4;" x1="518.1941" x2="518.1941" y1="2050.3101" y2="2065.3101"/><polygon fill="#4B5563" points="514.1941,2055.3101,518.1941,2065.3101,522.1941,2055.3101,518.1941,2059.3101" style="stroke:#4B5563;stroke-width:1;stroke-linejoin:miter;stroke-miterlimit:10;"/><line style="stroke:#4B5563;stroke-width:1.4;" x1="1510.5413" x2="1510.5413" y1="1796.8188" y2="1816.8188"/><polygon fill="#4B5563" points="1506.5413,1806.8188,1510.5413,1816.8188,1514.5413,1806.8188,1510.5413,1810.8188" style="stroke:#4B5563;stroke-width:1;stroke-linejoin:miter;stroke-miterlimit:10;"/><line style="stroke:#4B5563;stroke-width:1.4;" x1="157.311" x2="157.311" y1="243.8701" y2="248.8701"/><line style="stroke:#4B5563;stroke-width:1.4;" x1="157.311" x2="518.1941" y1="248.8701" y2="248.8701"/><line style="stroke:#4B5563;stroke-width:1.4;" x1="518.1941" x2="518.1941" y1="248.8701" y2="263.8701"/><polygon fill="#4B5563" points="514.1941,253.8701,518.1941,263.8701,522.1941,253.8701,518.1941,257.8701" style="stroke:#4B5563;stroke-width:1;stroke-linejoin:miter;stroke-miterlimit:10;"/><line style="stroke:#4B5563;stroke-width:1.4;" x1="305.6221" x2="305.6221" y1="833.2297" y2="837.2297"/><line style="stroke:#4B5563;stroke-width:1.4;" x1="305.6221" x2="1115.1228" y1="837.2297" y2="837.2297"/><line style="stroke:#4B5563;stroke-width:1.4;" x1="1115.1228" x2="1115.1228" y1="837.2297" y2="853.2297"/><polygon fill="#4B5563" points="1111.1228,843.2297,1115.1228,853.2297,1119.1228,843.2297,1115.1228,847.2297" style="stroke:#4B5563;stroke-width:1;stroke-linejoin:miter;stroke-miterlimit:10;"/><line style="stroke:#4B5563;stroke-width:1.4;" x1="360.377" x2="360.377" y1="833.2297" y2="837.2297"/><line style="stroke:#4B5563;stroke-width:1.4;" x1="360.377" x2="1352.7241" y1="837.2297" y2="837.2297"/><line style="stroke:#4B5563;stroke-width:1.4;" x1="1352.7241" x2="1352.7241" y1="837.2297" y2="853.2297"/><polygon fill="#4B5563" points="1348.7241,843.2297,1352.7241,853.2297,1356.7241,843.2297,1352.7241,847.2297" style="stroke:#4B5563;stroke-width:1;stroke-linejoin:miter;stroke-miterlimit:10;"/><line style="stroke:#4B5563;stroke-width:1.4;" x1="622.6506" x2="622.6506" y1="833.2297" y2="837.2297"/><line style="stroke:#4B5563;stroke-width:1.4;" x1="622.6506" x2="1614.9978" y1="837.2297" y2="837.2297"/><line style="stroke:#4B5563;stroke-width:1.4;" x1="1614.9978" x2="1614.9978" y1="837.2297" y2="853.2297"/><polygon fill="#4B5563" points="1610.9978,843.2297,1614.9978,853.2297,1618.9978,843.2297,1614.9978,847.2297" style="stroke:#4B5563;stroke-width:1;stroke-linejoin:miter;stroke-miterlimit:10;"/><line style="stroke:#4B5563;stroke-width:1.4;" x1="900.7629" x2="900.7629" y1="833.2297" y2="837.2297"/><line style="stroke:#4B5563;stroke-width:1.4;" x1="900.7629" x2="1893.1101" y1="837.2297" y2="837.2297"/><line style="stroke:#4B5563;stroke-width:1.4;" x1="1893.1101" x2="1893.1101" y1="837.2297" y2="853.2297"/><polygon fill="#4B5563" points="1889.1101,843.2297,1893.1101,853.2297,1897.1101,843.2297,1893.1101,847.2297" style="stroke:#4B5563;stroke-width:1;stroke-linejoin:miter;stroke-miterlimit:10;"/><line style="stroke:#4B5563;stroke-width:1.4;" x1="1510.5413" x2="1510.5413" y1="933.7268" y2="938.7268"/><line style="stroke:#4B5563;stroke-width:1.4;" x1="1510.5413" x2="518.1941" y1="938.7268" y2="938.7268"/><line style="stroke:#4B5563;stroke-width:1.4;" x1="518.1941" x2="518.1941" y1="938.7268" y2="953.7268"/><polygon fill="#4B5563" points="514.1941,943.7268,518.1941,953.7268,522.1941,943.7268,518.1941,947.7268" style="stroke:#4B5563;stroke-width:1;stroke-linejoin:miter;stroke-miterlimit:10;"/><line style="stroke:#4B5563;stroke-width:1.4;" x1="518.1941" x2="518.1941" y1="1349.8364" y2="1354.8364"/><line style="stroke:#4B5563;stroke-width:1.4;" x1="518.1941" x2="1510.5413" y1="1354.8364" y2="1354.8364"/><line style="stroke:#4B5563;stroke-width:1.4;" x1="1510.5413" x2="1510.5413" y1="1354.8364" y2="1369.8364"/><polygon fill="#4B5563" points="1506.5413,1359.8364,1510.5413,1369.8364,1514.5413,1359.8364,1510.5413,1363.8364" style="stroke:#4B5563;stroke-width:1;stroke-linejoin:miter;stroke-miterlimit:10;"/><line style="stroke:#4B5563;stroke-width:1.4;" x1="1510.5413" x2="1510.5413" y1="1573.3276" y2="1578.3276"/><line style="stroke:#4B5563;stroke-width:1.4;" x1="1510.5413" x2="518.1941" y1="1578.3276" y2="1578.3276"/><line style="stroke:#4B5563;stroke-width:1.4;" x1="518.1941" x2="518.1941" y1="1578.3276" y2="1593.3276"/><polygon fill="#4B5563" points="514.1941,1583.3276,518.1941,1593.3276,522.1941,1583.3276,518.1941,1587.3276" style="stroke:#4B5563;stroke-width:1;stroke-linejoin:miter;stroke-miterlimit:10;"/><line style="stroke:#4B5563;stroke-width:1.4;" x1="518.1941" x2="518.1941" y1="1722.3218" y2="1727.3218"/><line style="stroke:#4B5563;stroke-width:1.4;" x1="518.1941" x2="1510.5413" y1="1727.3218" y2="1727.3218"/><line style="stroke:#4B5563;stroke-width:1.4;" x1="1510.5413" x2="1510.5413" y1="1727.3218" y2="1742.3218"/><polygon fill="#4B5563" points="1506.5413,1732.3218,1510.5413,1742.3218,1514.5413,1732.3218,1510.5413,1736.3218" style="stroke:#4B5563;stroke-width:1;stroke-linejoin:miter;stroke-miterlimit:10;"/><text fill="#000000" font-family="Arial" font-size="15" lengthAdjust="spacing" textLength="141.7236" x="85.4492" y="83.9458">Event Organiser / M1</text><text fill="#000000" font-family="Arial" font-size="15" lengthAdjust="spacing" textLength="160.8838" x="561.283" y="83.9458">M2 Assessment Service</text><text fill="#000000" font-family="Arial" font-size="15" lengthAdjust="spacing" textLength="166.7358" x="1455.6656" y="83.9458">External Services &amp; Data</text><g class="legend" data-source-line="111"><rect fill="none" height="78.3945" rx="7.5" ry="7.5" style="stroke:#000000;stroke-width:1;" width="294.7852" x="909.269" y="2258.3042"/><text fill="#000000" font-family="Arial" font-size="14" font-weight="700" lengthAdjust="spacing" textLength="45.1035" x="918.1587" y="2278.436">Colour</text><text fill="#000000" font-family="Arial" font-size="14" font-weight="700" lengthAdjust="spacing" textLength="95.6826" x="971.0415" y="2278.436">Responsibility</text><rect fill="#EAF3FA" height="16.0986" style="stroke:none;stroke-width:1;" width="52.8828" x="914.269" y="2281.4028"/><text fill="#000000" font-family="Arial" font-size="14" lengthAdjust="spacing" textLength="3.8896" x="914.269" y="2294.5347">&#160;</text><text fill="#000000" font-family="Arial" font-size="14" lengthAdjust="spacing" textLength="132.2754" x="971.0415" y="2294.5347">Event Organiser / M1</text><rect fill="#EEEAFB" height="16.0986" style="stroke:none;stroke-width:1;" width="52.8828" x="914.269" y="2297.5015"/><text fill="#000000" font-family="Arial" font-size="14" lengthAdjust="spacing" textLength="3.8896" x="914.269" y="2310.6333">&#160;</text><text fill="#000000" font-family="Arial" font-size="14" lengthAdjust="spacing" textLength="150.1582" x="971.0415" y="2310.6333">M2 Assessment Service</text><rect fill="#E8F6F1" height="16.0986" style="stroke:none;stroke-width:1;" width="52.8828" x="914.269" y="2313.6001"/><text fill="#000000" font-family="Arial" font-size="14" lengthAdjust="spacing" textLength="3.8896" x="914.269" y="2326.7319">&#160;</text><text fill="#000000" font-family="Arial" font-size="14" lengthAdjust="spacing" textLength="224.123" x="971.0415" y="2326.7319">External context, AI and persistence</text><line style="stroke:#000000;stroke-width:1;" x1="914.269" x2="1199.0542" y1="2265.3042" y2="2265.3042"/><line style="stroke:#000000;stroke-width:1;" x1="914.269" x2="1199.0542" y1="2281.4028" y2="2281.4028"/><line style="stroke:#000000;stroke-width:1;" x1="914.269" x2="1199.0542" y1="2297.5015" y2="2297.5015"/><line style="stroke:#000000;stroke-width:1;" x1="914.269" x2="1199.0542" y1="2313.6001" y2="2313.6001"/><line style="stroke:#000000;stroke-width:1;" x1="914.269" x2="1199.0542" y1="2329.6987" y2="2329.6987"/><line style="stroke:#000000;stroke-width:1;" x1="914.269" x2="914.269" y1="2265.3042" y2="2329.6987"/><line style="stroke:#000000;stroke-width:1;" x1="967.1519" x2="967.1519" y1="2265.3042" y2="2329.6987"/><line style="stroke:#000000;stroke-width:1;" x1="1199.0542" x2="1199.0542" y1="2265.3042" y2="2329.6987"/></g><?plantuml-src ZLVHRjis57ttLrnWmD01Jbl7IPOcwmOxZj40Srl4tOe1UQ4bsk9CaHf9EN7d0Vk80VkW_Sc-PETIaYrxMPS03LIHl3htt7FFPO8AMjBacFx-_G-Qvi85kbL-IGFlfVUvD864IMagvZAiwLPwMxf4uY6nELPJ4PGrTsQG1BLIs35IOk54tkdufJA5m2FDHB9SE5kQzCfgw-YBSVnfxV2PIEszCWkQ2-rbQoMLSr7gCBOcl1Mvf85JGZ--FbMV9FLEMui3v-nz_SsJuUdfMVzmyKEcagL1ejHxVj9Q54qwltQ8XeVuhmVZ_dZ0AzQbqjLlNmxFniDpl6KmzRlUg_xnoGZlG4jkJJfyX8gJqLbhGplYwElpuSkNM9m6rEKmvFKsoFRLK3H7hq-7_UD-vxTMJiO6-NW-075-VNwOp_XuyAe_tC_dT7XotEiXR6TJix2vNh56thc5CCfBHozeqjjqF2FkN4pBMQu2uQYJldgMSRye2gsIA9xBpiMLamBWL9wNGSoWnnZqH-by51SBqClcA4A7qbEmz1xwWsWk8vfhu1bk8EIMSgVIhLGYDvqBw5MgbQIn0f1WdQGaVlD5MQJywU3KOY7TdG5KKORCEYIJKYvCAJJ0G-r56IImVcz5sYG1N4df73-lAh30ekRqh4QsstTd3ZQIV50--E--ef19Gy_Usgz0zSLqgGfIHcgrK4n4311HELbOD6UklEV8s-yH2B55Hw9lwDbFqiSmmrBfb0fd4rbjpuJFQEviZk18fE8qgboIJpAPYoQYl-mm-7aazNnyDkvjhX-2T0Oyr7nw-f968WZm-i49upcEnRfUKwA5GlliIl2pdTsPkcIlMuYwTAz2HbeAu8v4nfCtevh1gofGyak9YgM7DDtAK3f347THI90hDAgPhYd-xjQ9TLbt-BIMZx6qI_ApofbRjtmA4m0rbY79w5qXpKT8AqCluB1CXAyAA1zOykW0U9ncJwoLV1c_GM8XbAboyrQZB1EXnTehGInGq2NbCXNhxftX9ydbmx-Yd24ePLOhB1w6cWX610cL283wghc2g1DH2E3WK7EGIvKKk2wKeDNbG_Wt9FG7f4ZS1Z0JLkOsd3A9Ii6PlpEpDUTKhUARiPgCD9Bu_qtAB_CwDakHiLQ0o1jH-Co2oIYRQWfrAQWSxIpoefAGHKA0ad2V3k0mwqRYKYsoS9JQ70aX_o0NrgrhuRF_29sKcdtWpStjuFQAj5gY1JDhK_hhJtWF9nlMu8lhYF-i6mDZj9du95ow_IHCJYsYix77f6n_HjTdTpL0Nivgl_TnM9DAsMzo0RuVOavsFeTes8CmbIyxqSGTPuEwl6kleRiol0STkpWLikSyNYI4cojOT81Ss8nr8ELtbliy5eh3xoCIy35KgXjBhvK0kPLvo5L5TOjr4CNg25AlBvzc7zEeOwtjlGOooG3CqVkRczeueNm1bJOYsEUZoW5ZO8Aq9kA19ltBQ1ree08-9Za_iH9AStxr58aLFre9jClMKnhJh4r5f2lbMHvRdN3d2XDBMg59a8-FS5np8S9Ra2vTtCKU6frctwvAiuM3CQbCXB6r0pQflV8I3MwmgdJ9uqeOB5AI2REG37nV6N4x19OUrhb21-tbg2WhOLlc9nfWImt_4Nm62zTG2RXXdWpF6ySmAueM9NZXTQh8YNvySGMMecc5LYQxkO5OI7vRYdg0j1dtJvJOK2xGytF5gs4thMAis8vepMRsTFUl6FMMQiwsXjBkDOysfNLp2pWSKoFb4pHWDOGQnNfSfRb17XtSqtWtsVdVZf5Am5lItTu5dADT_51TPPgBnkxeY-sfcv6FMp_2pcHb6tjHHSb-XIEm-xsBmESbCX6O5bYqPS3befh2gF5x7awuTzZcSdZ4kTDAoVlOjpsUGANcNexlkDtZGh_RP2lI8tPFr4_gD5xw9gS7BlW6Ew6WwB8NE4ls7it97PALkBz1jObYDbdyMCt5cYm8Tb3bJapLRMGhq2xspf19tNL2GrxxJOTigtgsZ3FMiwFbWj_CR0WsHvpDQ-BRS-dugVOcDLEQ_xpWUyFcc_eg_IrjwB7Rz7PNB0BlUhGEsssn9MAmfYjg0-soeSHR0-iBVclYAQ2jCFy3?></g></svg>