<svg xmlns="http://www.w3.org/2000/svg" width="1900" height="1380" viewBox="0 0 1900 1380">
<defs><marker id="arrow" markerWidth="10" markerHeight="7" refX="9" refY="3.5" orient="auto"><polygon points="0 0, 10 3.5, 0 7" fill="#526175"/></marker></defs>
<style>
.title{font:700 26px Arial;fill:#172033} .subtitle{font:15px Arial;fill:#526175}
.boundary{fill:#F8FBFE;stroke:#0B6FB8;stroke-width:2} .section{fill:#DCEEFF;stroke:none}
.section-text{font:700 16px Arial;fill:#0B4F7E;text-anchor:middle}
.uc{fill:#EAF3FA;stroke:#0B6FB8;stroke-width:2} .uc-id{font:700 15px Arial;fill:#0B4F7E;text-anchor:middle}
.uc-label{font:14px Arial;fill:#172033;text-anchor:middle} .actor{fill:#fff;stroke:#334155;stroke-width:2}
.actor-line{stroke:#334155;stroke-width:2;fill:none} .actor-label{font:14px Arial;fill:#172033;text-anchor:middle}
.edge{stroke:#526175;stroke-width:1.7;fill:none} .edge-label{font:12px Arial;fill:#526175;text-anchor:middle;paint-order:stroke;stroke:white;stroke-width:4px}
.note{font:13px Arial;fill:#7A4D00} .legend{font:13px Arial;fill:#334155}
</style>
<rect width="100%" height="100%" fill="white"/>
<text x="950" y="38" class="title" text-anchor="middle">M2 Use Case Diagram</text>
<text x="950" y="62" class="subtitle" text-anchor="middle">Smart Risk Assessment and Safety Resource Recommendation</text>
<rect x="245" y="72" width="1375" height="1190" rx="12" class="boundary"/>
<rect x="260" y="92" width="410" height="34" rx="6" class="section"/><text x="465" y="115" class="section-text">Inputs and evidence</text>
<rect x="700" y="92" width="410" height="34" rx="6" class="section"/><text x="905" y="115" class="section-text">Assessment pipeline</text>
<rect x="1140" y="92" width="410" height="34" rx="6" class="section"/><text x="1345" y="115" class="section-text">Role-based views</text>
<circle cx="125" cy="170" r="24" class="actor"/><line x1="125" y1="194" x2="125" y2="252" class="actor-line"/><line x1="85" y1="218" x2="165" y2="218" class="actor-line"/><line x1="125" y1="252" x2="90" y2="295" class="actor-line"/><line x1="125" y1="252" x2="160" y2="295" class="actor-line"/><text x="125" y="325" class="actor-label">M1 / User &amp; Event</text><text x="125" y="347" class="actor-label">Management</text><circle cx="125" cy="445" r="24" class="actor"/><line x1="125" y1="469" x2="125" y2="527" class="actor-line"/><line x1="85" y1="493" x2="165" y2="493" class="actor-line"/><line x1="125" y1="527" x2="90" y2="570" class="actor-line"/><line x1="125" y1="527" x2="160" y2="570" class="actor-line"/><text x="125" y="600" class="actor-label">OpenWeather API</text><circle cx="125" cy="610" r="24" class="actor"/><line x1="125" y1="634" x2="125" y2="692" class="actor-line"/><line x1="85" y1="658" x2="165" y2="658" class="actor-line"/><line x1="125" y1="692" x2="90" y2="735" class="actor-line"/><line x1="125" y1="692" x2="160" y2="735" class="actor-line"/><text x="125" y="765" class="actor-label">Public Holiday</text><text x="125" y="787" class="actor-label">Dataset</text><circle cx="125" cy="775" r="24" class="actor"/><line x1="125" y1="799" x2="125" y2="857" class="actor-line"/><line x1="85" y1="823" x2="165" y2="823" class="actor-line"/><line x1="125" y1="857" x2="90" y2="900" class="actor-line"/><line x1="125" y1="857" x2="160" y2="900" class="actor-line"/><text x="125" y="930" class="actor-label">Firestore Database</text><circle cx="125" cy="940" r="24" class="actor"/><line x1="125" y1="964" x2="125" y2="1022" class="actor-line"/><line x1="85" y1="988" x2="165" y2="988" class="actor-line"/><line x1="125" y1="1022" x2="90" y2="1065" class="actor-line"/><line x1="125" y1="1022" x2="160" y2="1065" class="actor-line"/><text x="125" y="1095" class="actor-label">M4 Incident Reporting</text><circle cx="1725" cy="430" r="24" class="actor"/><line x1="1725" y1="454" x2="1725" y2="512" class="actor-line"/><line x1="1685" y1="478" x2="1765" y2="478" class="actor-line"/><line x1="1725" y1="512" x2="1690" y2="555" class="actor-line"/><line x1="1725" y1="512" x2="1760" y2="555" class="actor-line"/><text x="1725" y="585" class="actor-label">Authority Officer</text><circle cx="1725" cy="650" r="24" class="actor"/><line x1="1725" y1="674" x2="1725" y2="732" class="actor-line"/><line x1="1685" y1="698" x2="1765" y2="698" class="actor-line"/><line x1="1725" y1="732" x2="1690" y2="775" class="actor-line"/><line x1="1725" y1="732" x2="1760" y2="775" class="actor-line"/><text x="1725" y="805" class="actor-label">Admin</text><circle cx="1725" cy="890" r="24" class="actor"/><line x1="1725" y1="914" x2="1725" y2="972" class="actor-line"/><line x1="1685" y1="938" x2="1765" y2="938" class="actor-line"/><line x1="1725" y1="972" x2="1690" y2="1015" class="actor-line"/><line x1="1725" y1="972" x2="1760" y2="1015" class="actor-line"/><text x="1725" y="1045" class="actor-label">M3 Authority Approval</text><text x="1725" y="1067" class="actor-label">and Notification</text><circle cx="1725" cy="190" r="24" class="actor"/><line x1="1725" y1="214" x2="1725" y2="272" class="actor-line"/><line x1="1685" y1="238" x2="1765" y2="238" class="actor-line"/><line x1="1725" y1="272" x2="1690" y2="315" class="actor-line"/><line x1="1725" y1="272" x2="1760" y2="315" class="actor-line"/><text x="1725" y="345" class="actor-label">MiniMax M3 API</text><path d="M 795 130 L 515 285" class="edge" stroke-dasharray="8 7" marker-end="url(#arrow)"/><text x="655.0" y="200.5" class="edge-label">«include»</text><path d="M 795 130 L 515 550" class="edge" stroke-dasharray="8 7" marker-end="url(#arrow)"/><text x="655.0" y="333.0" class="edge-label">«include»</text><path d="M 795 130 L 515 1050" class="edge" stroke-dasharray="8 7" marker-end="url(#arrow)"/><text x="655.0" y="583.0" class="edge-label">«include»</text><path d="M 795 130 L 945 310" class="edge" stroke-dasharray="8 7" marker-end="url(#arrow)"/><text x="870.0" y="213.0" class="edge-label">«include»</text><path d="M 795 130 L 945 750" class="edge" stroke-dasharray="8 7" marker-end="url(#arrow)"/><text x="870.0" y="433.0" class="edge-label">«include»</text><path d="M 795 130 L 945 885" class="edge" stroke-dasharray="8 7" marker-end="url(#arrow)"/><text x="870.0" y="500.5" class="edge-label">«include»</text><path d="M 795 130 L 945 1020" class="edge" stroke-dasharray="8 7" marker-end="url(#arrow)"/><text x="870.0" y="568.0" class="edge-label">«include»</text><path d="M 515 285 L 515 400" class="edge" stroke-dasharray="8 7" marker-end="url(#arrow)"/><text x="515.0" y="335.5" class="edge-label">«include»</text><path d="M 515 550 L 515 665" class="edge" stroke-dasharray="8 7" marker-end="url(#arrow)"/><text x="515.0" y="600.5" class="edge-label">«include»</text><path d="M 515 550 L 515 780" class="edge" stroke-dasharray="8 7" marker-end="url(#arrow)"/><text x="515.0" y="658.0" class="edge-label">«include»</text><path d="M 515 550 L 515 895" class="edge" stroke-dasharray="8 7" marker-end="url(#arrow)"/><text x="515.0" y="715.5" class="edge-label">«include»</text><path d="M 945 310 L 945 445" class="edge" stroke-dasharray="8 7" marker-end="url(#arrow)"/><text x="945.0" y="370.5" class="edge-label">«include»</text><path d="M 945 580 L 945 310" class="edge" stroke-dasharray="8 7" marker-end="url(#arrow)"/><text x="945.0" y="438.0" class="edge-label">«extend»</text><path d="M 195 225 L 795 130" class="edge" marker-end="url(#arrow)"/><path d="M 195 225 L 515 400" class="edge" marker-end="url(#arrow)"/><path d="M 195 225 L 1375 885" class="edge" marker-end="url(#arrow)"/><path d="M 195 500 L 515 665" class="edge" marker-end="url(#arrow)"/><path d="M 195 665 L 515 780" class="edge" marker-end="url(#arrow)"/><path d="M 195 830 L 515 400" class="edge" marker-end="url(#arrow)"/><path d="M 195 830 L 515 895" class="edge" marker-end="url(#arrow)"/><path d="M 195 830 L 945 1020" class="edge" marker-end="url(#arrow)"/><path d="M 195 995 L 515 550" class="edge" marker-end="url(#arrow)"/><path d="M 1655 245 L 945 310" class="edge" marker-end="url(#arrow)"/><path d="M 1655 485 L 1375 390" class="edge" marker-end="url(#arrow)"/><path d="M 1655 485 L 1375 555" class="edge" marker-end="url(#arrow)"/><path d="M 1655 705 L 1375 720" class="edge" marker-end="url(#arrow)"/><ellipse cx="795" cy="130" rx="185" ry="50" class="uc"/><text x="795" y="106" class="uc-id">UC-M2-01</text><text x="795" y="130" class="uc-label">Assess Submitted Event Application</text><ellipse cx="515" cy="285" rx="185" ry="50" class="uc"/><text x="515" y="261" class="uc-id">UC-M2-02</text><text x="515" y="285" class="uc-label">Retrieve Submitted Event Data</text><ellipse cx="515" cy="400" rx="185" ry="50" class="uc"/><text x="515" y="376" class="uc-id">UC-M2-06</text><text x="515" y="400" class="uc-label">Provide Submitted Event Data</text><ellipse cx="515" cy="550" rx="185" ry="50" class="uc"/><text x="515" y="526" class="uc-id">UC-M2-03</text><text x="515" y="550" class="uc-label">Retrieve Contextual Evidence</text><ellipse cx="515" cy="665" rx="185" ry="50" class="uc"/><text x="515" y="641" class="uc-id">UC-M2-04</text><text x="515" y="665" class="uc-label">Provide Weather Data</text><ellipse cx="515" cy="780" rx="185" ry="50" class="uc"/><text x="515" y="756" class="uc-id">UC-M2-05</text><text x="515" y="780" class="uc-label">Provide Public Holiday Data</text><ellipse cx="515" cy="895" rx="185" ry="50" class="uc"/><text x="515" y="871" class="uc-id">UC-M2-07</text><text x="515" y="895" class="uc-label">Provide Venue History Data</text><ellipse cx="515" cy="1050" rx="185" ry="50" class="uc"/><text x="515" y="1016" class="uc-id">UC-M2-08</text><text x="515" y="1040" class="uc-label">Evaluate Readiness, Compliance</text><text x="515" y="1064" class="uc-label">and Evidence Confidence</text><ellipse cx="945" cy="310" rx="185" ry="50" class="uc"/><text x="945" y="286" class="uc-id">UC-M2-12</text><text x="945" y="310" class="uc-label">Generate AI-Assisted Analysis</text><ellipse cx="945" cy="445" rx="185" ry="50" class="uc"/><text x="945" y="421" class="uc-id">UC-M2-10</text><text x="945" y="445" class="uc-label">Validate AI Response</text><ellipse cx="945" cy="580" rx="185" ry="50" class="uc"/><text x="945" y="556" class="uc-id">UC-M2-13</text><text x="945" y="580" class="uc-label">Handle AI Failure / Create M3 Handoff</text><ellipse cx="945" cy="750" rx="185" ry="50" class="uc"/><text x="945" y="726" class="uc-id">UC-M2-09</text><text x="945" y="750" class="uc-label">Perform Risk Assessment</text><ellipse cx="945" cy="885" rx="185" ry="50" class="uc"/><text x="945" y="861" class="uc-id">UC-M2-11</text><text x="945" y="885" class="uc-label">Generate Safety Resource Recommendation</text><ellipse cx="945" cy="1020" rx="185" ry="50" class="uc"/><text x="945" y="996" class="uc-id">UC-M2-14</text><text x="945" y="1020" class="uc-label">Store Assessment and Resource Records</text><ellipse cx="1375" cy="390" rx="185" ry="50" class="uc"/><text x="1375" y="366" class="uc-id">UC-M2-15</text><text x="1375" y="390" class="uc-label">View Risk Assessment</text><ellipse cx="1375" cy="555" rx="185" ry="50" class="uc"/><text x="1375" y="531" class="uc-id">UC-M2-16</text><text x="1375" y="555" class="uc-label">View Resource Recommendation</text><ellipse cx="1375" cy="720" rx="185" ry="50" class="uc"/><text x="1375" y="696" class="uc-id">UC-M2-17</text><text x="1375" y="720" class="uc-label">View AI-Assisted Analysis</text><ellipse cx="1375" cy="885" rx="185" ry="50" class="uc"/><text x="1375" y="861" class="uc-id">UC-M2-18</text><text x="1375" y="885" class="uc-label">View Organiser Assessment Summary</text><path d="M 1130 580 L 1655 945" class="edge" marker-end="url(#arrow)"/><text x="1392.5" y="754.5" class="edge-label">review-required handoff</text><rect x="300" y="1288" width="1300" height="60" rx="8" fill="#FFF8E1" stroke="#D78B00"/>
<text x="950" y="1313" class="note" text-anchor="middle">UC-M2-01 is the primary M2 use case. UC-M2-13 records AI failure and creates the handoff only.</text>
<text x="950" y="1336" class="note" text-anchor="middle">An Admin performs the authorised manual-review process in M3, outside the M2 system boundary.</text>
</svg>